<?xml version="1.0" encoding="utf-8" standalone="no"?>
<!DOCTYPE svg PUBLIC "-//W3C//DTD SVG 1.1//EN"
  "http://www.w3.org/Graphics/SVG/1.1/DTD/svg11.dtd">
<svg xmlns:xlink="http://www.w3.org/1999/xlink" width="882.18pt" height="449.712pt" viewBox="0 0 882.18 449.712" xmlns="http://www.w3.org/2000/svg" version="1.1">
 <metadata>
  <rdf:RDF xmlns:dc="http://purl.org/dc/elements/1.1/" xmlns:cc="http://creativecommons.org/ns#" xmlns:rdf="http://www.w3.org/1999/02/22-rdf-syntax-ns#">
   <cc:Work>
    <dc:type rdf:resource="http://purl.org/dc/dcmitype/StillImage"/>
    <dc:date>2026-06-15T14:53:24.094718</dc:date>
    <dc:format>image/svg+xml</dc:format>
    <dc:creator>
     <cc:Agent>
      <dc:title>Matplotlib v3.10.9, https://matplotlib.org/</dc:title>
     </cc:Agent>
    </dc:creator>
   </cc:Work>
  </rdf:RDF>
 </metadata>
 <defs>
  <style type="text/css">*{stroke-linejoin: round; stroke-linecap: butt}</style>
 </defs>
 <g id="figure_1">
  <g id="patch_1">
   <path d="M 0 449.712
L 882.18 449.712
L 882.18 0
L 0 0
z
" style="fill: #ffffff"/>
  </g>
  <g id="axes_1">
   <g id="patch_2">
    <path d="M 29.844 421.668
L 258.066 421.668
Q 262.53 421.668 262.53 417.2328
L 262.53 35.2512
Q 262.53 30.816 258.066 30.816
L 29.844 30.816
Q 25.38 30.816 25.38 35.2512
L 25.38 417.2328
Q 25.38 421.668 29.844 421.668
z
" clip-path="url(#p6483336800)" style="fill: #fffbec; stroke: #f2c94c; stroke-width: 1.05; stroke-linejoin: miter"/>
   </g>
   <g id="patch_3">
    <path d="M 280.944 421.668
L 528.696 421.668
Q 533.16 421.668 533.16 417.2328
L 533.16 35.2512
Q 533.16 30.816 528.696 30.816
L 280.944 30.816
Q 276.48 30.816 276.48 35.2512
L 276.48 417.2328
Q 276.48 421.668 280.944 421.668
z
" clip-path="url(#p6483336800)" style="fill: #f2f7ff; stroke: #2f80ed; stroke-width: 1.05; stroke-linejoin: miter"/>
   </g>
   <g id="patch_4">
    <path d="M 551.574 421.668
L 852.336 421.668
Q 856.8 421.668 856.8 417.2328
L 856.8 35.2512
Q 856.8 30.816 852.336 30.816
L 551.574 30.816
Q 547.11 30.816 547.11 35.2512
L 547.11 417.2328
Q 547.11 421.668 551.574 421.668
z
" clip-path="url(#p6483336800)" style="fill: #f2fbf6; stroke: #27ae60; stroke-width: 1.05; stroke-linejoin: miter"/>
   </g>
   <g id="patch_5">
    <path d="M 33.471 74.0592
L 36.261 74.0592
Q 37.656 74.0592 37.656 72.6732
L 37.656 45.5076
Q 37.656 44.1216 36.261 44.1216
L 33.471 44.1216
Q 32.076 44.1216 32.076 45.5076
L 32.076 72.6732
Q 32.076 74.0592 33.471 74.0592
z
" clip-path="url(#p6483336800)" style="fill: #f2c94c; opacity: 0.82; stroke: #f2c94c; stroke-width: 1.3; stroke-linejoin: miter"/>
   </g>
   <g id="patch_6">
    <path d="M 284.571 74.0592
L 287.361 74.0592
Q 288.756 74.0592 288.756 72.6732
L 288.756 45.5076
Q 288.756 44.1216 287.361 44.1216
L 284.571 44.1216
Q 283.176 44.1216 283.176 45.5076
L 283.176 72.6732
Q 283.176 74.0592 284.571 74.0592
z
" clip-path="url(#p6483336800)" style="fill: #2f80ed; opacity: 0.82; stroke: #2f80ed; stroke-width: 1.3; stroke-linejoin: miter"/>
   </g>
   <g id="patch_7">
    <path d="M 555.201 74.0592
L 557.991 74.0592
Q 559.386 74.0592 559.386 72.6732
L 559.386 45.5076
Q 559.386 44.1216 557.991 44.1216
L 555.201 44.1216
Q 553.806 44.1216 553.806 45.5076
L 553.806 72.6732
Q 553.806 74.0592 555.201 74.0592
z
" clip-path="url(#p6483336800)" style="fill: #27ae60; opacity: 0.82; stroke: #27ae60; stroke-width: 1.3; stroke-linejoin: miter"/>
   </g>
   <g id="patch_8">
    <path d="M 565.524 381.7512
L 687.726 381.7512
Q 692.19 381.7512 692.19 377.316
L 692.19 81.2664
Q 692.19 76.8312 687.726 76.8312
L 565.524 76.8312
Q 561.06 76.8312 561.06 81.2664
L 561.06 377.316
Q 561.06 381.7512 565.524 381.7512
z
" clip-path="url(#p6483336800)" style="fill: #ebf4ff; stroke-dasharray: 3.145,1.36; stroke-dashoffset: 0; stroke: #2f80ed; stroke-width: 0.85; stroke-linejoin: miter"/>
   </g>
   <g id="patch_9">
    <path d="M 708.93 381.7512
L 838.386 381.7512
Q 842.85 381.7512 842.85 377.316
L 842.85 81.2664
Q 842.85 76.8312 838.386 76.8312
L 708.93 76.8312
Q 704.466 76.8312 704.466 81.2664
L 704.466 377.316
Q 704.466 381.7512 708.93 381.7512
z
" clip-path="url(#p6483336800)" style="fill: #fff8ee; stroke-dasharray: 3.145,1.36; stroke-dashoffset: 0; stroke: #f2994a; stroke-width: 0.85; stroke-linejoin: miter"/>
   </g>
   <g id="text_1">
    <text style="font-weight: 700; font-size: 11.2px; font-family: 'Arial'; text-anchor: start; fill: #f2c94c" x="43.794" y="54.49245" transform="rotate(-0 43.794 54.49245)">Stage 1</text>
   </g>
   <g id="text_2">
    <text style="font-size: 8.8px; font-family: 'Arial'; text-anchor: start; fill: #6b7280" x="43.794" y="71.487675" transform="rotate(-0 43.794 71.487675)">Classification</text>
   </g>
   <g id="text_3">
    <text style="font-style: italic; font-size: 7.7px; font-family: 'Arial'; text-anchor: end; fill: #6b7280" x="250.254" y="55.731516" transform="rotate(-0 250.254 55.731516)">unit: post</text>
   </g>
   <g id="text_4">
    <text style="font-weight: 700; font-size: 11.2px; font-family: 'Arial'; text-anchor: start; fill: #2f80ed" x="294.894" y="54.49245" transform="rotate(-0 294.894 54.49245)">Stage 2</text>
   </g>
   <g id="text_5">
    <text style="font-size: 8.8px; font-family: 'Arial'; text-anchor: start; fill: #6b7280" x="294.894" y="71.487675" transform="rotate(-0 294.894 71.487675)">EB aggregation</text>
   </g>
   <g id="text_6">
    <text style="font-style: italic; font-size: 7.7px; font-family: 'Arial'; text-anchor: end; fill: #6b7280" x="520.884" y="55.731516" transform="rotate(-0 520.884 55.731516)">unit: district x dimension</text>
   </g>
   <g id="text_7">
    <text style="font-weight: 700; font-size: 11.2px; font-family: 'Arial'; text-anchor: start; fill: #27ae60" x="565.524" y="54.49245" transform="rotate(-0 565.524 54.49245)">Stage 3</text>
   </g>
   <g id="text_8">
    <text style="font-size: 8.8px; font-family: 'Arial'; text-anchor: start; fill: #6b7280" x="565.524" y="71.487675" transform="rotate(-0 565.524 71.487675)">Evidence-grounded judgment</text>
   </g>
   <g id="text_9">
    <text style="font-style: italic; font-size: 7.7px; font-family: 'Arial'; text-anchor: end; fill: #6b7280" x="844.524" y="55.731516" transform="rotate(-0 844.524 55.731516)">unit: post-level case</text>
   </g>
   <g id="patch_10">
    <path d="M 81.738 94.572
L 206.172 94.572
Q 209.52 94.572 209.52 91.2456
L 209.52 67.9608
Q 209.52 64.6344 206.172 64.6344
L 81.738 64.6344
Q 78.39 64.6344 78.39 67.9608
L 78.39 91.2456
Q 78.39 94.572 81.738 94.572
z
" clip-path="url(#p6483336800)" style="fill: #9ca3af; opacity: 0.17; stroke: #9ca3af; stroke-width: 1.3; stroke-linejoin: miter"/>
   </g>
   <g id="patch_11">
    <path d="M 81.738 142.2504
L 206.172 142.2504
Q 209.52 142.2504 209.52 138.924
L 209.52 115.6392
Q 209.52 112.3128 206.172 112.3128
L 81.738 112.3128
Q 78.39 112.3128 78.39 115.6392
L 78.39 138.924
Q 78.39 142.2504 81.738 142.2504
z
" clip-path="url(#p6483336800)" style="fill: #9ca3af; opacity: 0.17; stroke: #9ca3af; stroke-width: 1.3; stroke-linejoin: miter"/>
   </g>
   <g id="patch_12">
    <path d="M 81.738 189.9288
L 206.172 189.9288
Q 209.52 189.9288 209.52 186.6024
L 209.52 163.3176
Q 209.52 159.9912 206.172 159.9912
L 81.738 159.9912
Q 78.39 159.9912 78.39 163.3176
L 78.39 186.6024
Q 78.39 189.9288 81.738 189.9288
z
" clip-path="url(#p6483336800)" style="fill: #2f80ed; opacity: 0.13; stroke: #2f80ed; stroke-width: 1.3; stroke-linejoin: miter"/>
   </g>
   <g id="patch_13">
    <path d="M 81.738 237.6072
L 206.172 237.6072
Q 209.52 237.6072 209.52 234.2808
L 209.52 210.996
Q 209.52 207.6696 206.172 207.6696
L 81.738 207.6696
Q 78.39 207.6696 78.39 210.996
L 78.39 234.2808
Q 78.39 237.6072 81.738 237.6072
z
" clip-path="url(#p6483336800)" style="fill: #f2c94c; opacity: 0.18; stroke: #f2c94c; stroke-width: 1.3; stroke-linejoin: miter"/>
   </g>
   <g id="patch_14">
    <path d="M 81.738 285.2856
L 206.172 285.2856
Q 209.52 285.2856 209.52 281.9592
L 209.52 258.6744
Q 209.52 255.348 206.172 255.348
L 81.738 255.348
Q 78.39 255.348 78.39 258.6744
L 78.39 281.9592
Q 78.39 285.2856 81.738 285.2856
z
" clip-path="url(#p6483336800)" style="fill: #f2c94c; opacity: 0.18; stroke: #f2c94c; stroke-width: 1.3; stroke-linejoin: miter"/>
   </g>
   <g id="patch_15">
    <path d="M 339.813 102.888
L 469.827 102.888
Q 473.175 102.888 473.175 99.5616
L 473.175 78.4944
Q 473.175 75.168 469.827 75.168
L 339.813 75.168
Q 336.465 75.168 336.465 78.4944
L 336.465 99.5616
Q 336.465 102.888 339.813 102.888
z
" clip-path="url(#p6483336800)" style="fill: #9ca3af; opacity: 0.17; stroke: #9ca3af; stroke-width: 1.3; stroke-linejoin: miter"/>
   </g>
   <g id="patch_16">
    <path d="M 339.813 146.6856
L 469.827 146.6856
Q 473.175 146.6856 473.175 143.3592
L 473.175 122.292
Q 473.175 118.9656 469.827 118.9656
L 339.813 118.9656
Q 336.465 118.9656 336.465 122.292
L 336.465 143.3592
Q 336.465 146.6856 339.813 146.6856
z
" clip-path="url(#p6483336800)" style="fill: #2f80ed; opacity: 0.13; stroke: #2f80ed; stroke-width: 1.3; stroke-linejoin: miter"/>
   </g>
   <g id="patch_17">
    <path d="M 339.813 190.4832
L 469.827 190.4832
Q 473.175 190.4832 473.175 187.1568
L 473.175 166.0896
Q 473.175 162.7632 469.827 162.7632
L 339.813 162.7632
Q 336.465 162.7632 336.465 166.0896
L 336.465 187.1568
Q 336.465 190.4832 339.813 190.4832
z
" clip-path="url(#p6483336800)" style="fill: #2f80ed; opacity: 0.13; stroke: #2f80ed; stroke-width: 1.3; stroke-linejoin: miter"/>
   </g>
   <g id="patch_18">
    <path d="M 339.813 234.2808
L 469.827 234.2808
Q 473.175 234.2808 473.175 230.9544
L 473.175 209.8872
Q 473.175 206.5608 469.827 206.5608
L 339.813 206.5608
Q 336.465 206.5608 336.465 209.8872
L 336.465 230.9544
Q 336.465 234.2808 339.813 234.2808
z
" clip-path="url(#p6483336800)" style="fill: #2f80ed; opacity: 0.13; stroke: #2f80ed; stroke-width: 1.3; stroke-linejoin: miter"/>
   </g>
   <g id="patch_19">
    <path d="M 339.813 278.0784
L 469.827 278.0784
Q 473.175 278.0784 473.175 274.752
L 473.175 253.6848
Q 473.175 250.3584 469.827 250.3584
L 339.813 250.3584
Q 336.465 250.3584 336.465 253.6848
L 336.465 274.752
Q 336.465 278.0784 339.813 278.0784
z
" clip-path="url(#p6483336800)" style="fill: #2f80ed; opacity: 0.13; stroke: #2f80ed; stroke-width: 1.3; stroke-linejoin: miter"/>
   </g>
   <g id="patch_20">
    <path d="M 339.813 321.876
L 469.827 321.876
Q 473.175 321.876 473.175 318.5496
L 473.175 297.4824
Q 473.175 294.156 469.827 294.156
L 339.813 294.156
Q 336.465 294.156 336.465 297.4824
L 336.465 318.5496
Q 336.465 321.876 339.813 321.876
z
" clip-path="url(#p6483336800)" style="fill: #2f80ed; opacity: 0.13; stroke: #2f80ed; stroke-width: 1.3; stroke-linejoin: miter"/>
   </g>
   <g id="patch_21">
    <path d="M 339.813 365.6736
L 469.827 365.6736
Q 473.175 365.6736 473.175 362.3472
L 473.175 341.28
Q 473.175 337.9536 469.827 337.9536
L 339.813 337.9536
Q 336.465 337.9536 336.465 341.28
L 336.465 362.3472
Q 336.465 365.6736 339.813 365.6736
z
" clip-path="url(#p6483336800)" style="fill: #f2994a; opacity: 0.14; stroke: #f2994a; stroke-width: 1.3; stroke-linejoin: miter"/>
   </g>
   <g id="patch_22">
    <path d="M 574.452 255.348
L 632.484 255.348
Q 635.832 255.348 635.832 252.0216
L 635.832 229.8456
Q 635.832 226.5192 632.484 226.5192
L 574.452 226.5192
Q 571.104 226.5192 571.104 229.8456
L 571.104 252.0216
Q 571.104 255.348 574.452 255.348
z
" clip-path="url(#p6483336800)" style="fill: #9ca3af; opacity: 0.18; stroke: #9ca3af; stroke-width: 1.3; stroke-linejoin: miter"/>
   </g>
   <g id="patch_23">
    <path d="M 624.672 199.3536
L 678.24 199.3536
Q 681.588 199.3536 681.588 196.0272
L 681.588 178.2864
Q 681.588 174.96 678.24 174.96
L 624.672 174.96
Q 621.324 174.96 621.324 178.2864
L 621.324 196.0272
Q 621.324 199.3536 624.672 199.3536
z
" clip-path="url(#p6483336800)" style="fill: #27ae60; opacity: 0.15; stroke: #27ae60; stroke-width: 1.3; stroke-linejoin: miter"/>
   </g>
   <g id="patch_24">
    <path d="M 624.672 239.8248
L 678.24 239.8248
Q 681.588 239.8248 681.588 236.4984
L 681.588 218.7576
Q 681.588 215.4312 678.24 215.4312
L 624.672 215.4312
Q 621.324 215.4312 621.324 218.7576
L 621.324 236.4984
Q 621.324 239.8248 624.672 239.8248
z
" clip-path="url(#p6483336800)" style="fill: #27ae60; opacity: 0.15; stroke: #27ae60; stroke-width: 1.3; stroke-linejoin: miter"/>
   </g>
   <g id="patch_25">
    <path d="M 624.672 280.296
L 678.24 280.296
Q 681.588 280.296 681.588 276.9696
L 681.588 259.2288
Q 681.588 255.9024 678.24 255.9024
L 624.672 255.9024
Q 621.324 255.9024 621.324 259.2288
L 621.324 276.9696
Q 621.324 280.296 624.672 280.296
z
" clip-path="url(#p6483336800)" style="fill: #27ae60; opacity: 0.15; stroke: #27ae60; stroke-width: 1.3; stroke-linejoin: miter"/>
   </g>
   <g id="patch_26">
    <path d="M 733.482 194.364
L 811.602 194.364
Q 814.95 194.364 814.95 191.0376
L 814.95 169.9704
Q 814.95 166.644 811.602 166.644
L 733.482 166.644
Q 730.134 166.644 730.134 169.9704
L 730.134 191.0376
Q 730.134 194.364 733.482 194.364
z
" clip-path="url(#p6483336800)" style="fill: #f2994a; opacity: 0.13; stroke: #f2994a; stroke-width: 1.3; stroke-linejoin: miter"/>
   </g>
   <g id="patch_27">
    <path d="M 733.482 244.26
L 811.602 244.26
Q 814.95 244.26 814.95 240.9336
L 814.95 219.8664
Q 814.95 216.54 811.602 216.54
L 733.482 216.54
Q 730.134 216.54 730.134 219.8664
L 730.134 240.9336
Q 730.134 244.26 733.482 244.26
z
" clip-path="url(#p6483336800)" style="fill: #2f80ed; opacity: 0.13; stroke: #2f80ed; stroke-width: 1.3; stroke-linejoin: miter"/>
   </g>
   <g id="patch_28">
    <path d="M 733.482 294.156
L 811.602 294.156
Q 814.95 294.156 814.95 290.8296
L 814.95 269.7624
Q 814.95 266.436 811.602 266.436
L 733.482 266.436
Q 730.134 266.436 730.134 269.7624
L 730.134 290.8296
Q 730.134 294.156 733.482 294.156
z
" clip-path="url(#p6483336800)" style="fill: #f2994a; opacity: 0.15; stroke: #f2994a; stroke-width: 1.3; stroke-linejoin: miter"/>
   </g>
   <g id="patch_29">
    <path d="M 733.482 344.052
L 811.602 344.052
Q 814.95 344.052 814.95 340.7256
L 814.95 319.6584
Q 814.95 316.332 811.602 316.332
L 733.482 316.332
Q 730.134 316.332 730.134 319.6584
L 730.134 340.7256
Q 730.134 344.052 733.482 344.052
z
" clip-path="url(#p6483336800)" style="fill: #1f2937; opacity: 0.06; stroke: #1f2937; stroke-width: 1.3; stroke-linejoin: miter"/>
   </g>
   <g id="text_10">
    <text style="font-weight: 700; font-size: 8.8px; font-family: 'Arial'; fill: #1f2937" transform="translate(126.108187 77.236687)">Platform</text>
    <text style="font-weight: 700; font-size: 8.8px; font-family: 'Arial'; fill: #1f2937" transform="translate(127.814562 86.531962)">records</text>
   </g>
   <g id="text_11">
    <text style="font-weight: 700; font-size: 8.8px; font-family: 'Arial'; fill: #1f2937" transform="translate(111.555875 124.857337)">Rule + keyword</text>
    <text style="font-weight: 700; font-size: 8.8px; font-family: 'Arial'; fill: #1f2937" transform="translate(129.76775 134.268112)">screen</text>
   </g>
   <g id="text_12">
    <text style="font-weight: 700; font-size: 8.8px; font-family: 'Arial'; fill: #1f2937" transform="translate(122.687187 172.593487)">Candidate</text>
    <text style="font-weight: 700; font-size: 8.8px; font-family: 'Arial'; fill: #1f2937" transform="translate(132.221437 181.888762)">posts</text>
   </g>
   <g id="text_13">
    <text style="font-weight: 700; font-size: 8.8px; font-family: 'Arial'; fill: #1f2937" transform="translate(122.186687 220.214137)">Relevance</text>
    <text style="font-weight: 700; font-size: 8.8px; font-family: 'Arial'; fill: #1f2937" transform="translate(129.536062 229.509412)">coding</text>
   </g>
   <g id="text_14">
    <text style="font-weight: 700; font-size: 8.8px; font-family: 'Arial'; fill: #1f2937" transform="translate(121.464125 267.892538)">Dimension</text>
    <text style="font-weight: 700; font-size: 8.8px; font-family: 'Arial'; fill: #1f2937" transform="translate(128.071 277.187812)">tagging</text>
   </g>
   <g id="text_15">
    <text style="font-weight: 700; font-size: 8.8px; font-family: 'Arial'; fill: #1f2937" transform="translate(384.0355 86.661487)">Classified</text>
    <text style="font-weight: 700; font-size: 8.8px; font-family: 'Arial'; fill: #1f2937" transform="translate(384.283 95.956762)">post base</text>
   </g>
   <g id="text_16">
    <text style="font-weight: 700; font-size: 8.8px; font-family: 'Arial'; fill: #1f2937" transform="translate(393.580062 130.343587)">Dong</text>
    <text style="font-weight: 700; font-size: 8.8px; font-family: 'Arial'; fill: #1f2937" transform="translate(389.659937 139.754362)">linkage</text>
   </g>
   <g id="text_17">
    <text style="font-weight: 700; font-size: 8.8px; font-family: 'Arial'; fill: #1f2937" transform="translate(384.76975 168.712688)">Exposure</text>
    <text style="font-weight: 700; font-size: 8.8px; font-family: 'Arial'; fill: #1f2937" transform="translate(378.176625 178.007963)">denominator</text>
   </g>
   <g id="text_18">
    <text style="font-style: italic; font-size: 7.1px; font-family: 'Arial'; text-anchor: middle; fill: #6b7280" x="404.82" y="187.329061" transform="rotate(-0 404.82 187.329061)">person-time</text>
   </g>
   <g id="text_19">
    <text style="font-weight: 700; font-size: 8.8px; font-family: 'Arial'; fill: #1f2937" transform="translate(384.522937 218.054287)">Observed</text>
    <text style="font-weight: 700; font-size: 8.8px; font-family: 'Arial'; fill: #1f2937" transform="translate(386.239625 227.349562)">post rate</text>
   </g>
   <g id="text_20">
    <text style="font-weight: 700; font-size: 8.8px; font-family: 'Arial'; fill: #1f2937" transform="translate(398.707437 256.250137)">EB</text>
    <text style="font-weight: 700; font-size: 8.8px; font-family: 'Arial'; fill: #1f2937" transform="translate(384.0355 265.545412)">shrinkage</text>
   </g>
   <g id="text_21">
    <text style="font-style: italic; font-size: 7.1px; font-family: 'Arial'; text-anchor: middle; fill: #6b7280" x="404.82" y="274.924261" transform="rotate(-0 404.82 274.924261)">prior + observed rate</text>
   </g>
   <g id="text_22">
    <text style="font-weight: 700; font-size: 8.8px; font-family: 'Arial'; fill: #1f2937" transform="translate(385.504 300.105487)">Posterior</text>
    <text style="font-weight: 700; font-size: 8.8px; font-family: 'Arial'; fill: #1f2937" transform="translate(396.74875 309.400762)">rate</text>
   </g>
   <g id="text_23">
    <text style="font-style: italic; font-size: 7.1px; font-family: 'Arial'; text-anchor: middle; fill: #6b7280" x="404.82" y="318.690798" transform="rotate(-0 404.82 318.690798)">per 100k person-years</text>
   </g>
   <g id="text_24">
    <text style="font-weight: 700; font-size: 8.8px; font-family: 'Arial'; fill: #1f2937" transform="translate(379.6465 349.442963)">High-z_shift</text>
    <text style="font-weight: 700; font-size: 8.8px; font-family: 'Arial'; fill: #1f2937" transform="translate(380.368375 358.853738)">outlier cells</text>
   </g>
   <g id="text_25">
    <text style="font-style: italic; font-size: 7.6px; font-family: 'Arial'; text-anchor: middle; fill: #1f2937" x="272.9925" y="308.016" transform="rotate(-0 272.9925 308.016)">classified base</text>
   </g>
   <g id="text_26">
    <!-- $I_R$: Stage A/B isolated inputs -->
    <g style="fill: #2f80ed" transform="translate(567.756 89.032)">
     <text>
      <tspan x="0" y="-0.171875" style="font-style: oblique; font-size: 7.6px; font-family: 'DejaVu Sans'; fill: #2f80ed">I</tspan>
      <tspan x="2.248779" y="1.140625" style="font-style: oblique; font-size: 5.32px; font-family: 'DejaVu Sans'; fill: #2f80ed">R</tspan>
      <tspan x="6.176154" y="-0.171875" style="font-style: italic; font-size: 7.6px; font-family: 'Arial'; fill: #2f80ed">:</tspan>
      <tspan x="8.294623" y="-0.171875" style="font-style: italic; font-size: 7.6px; font-family: 'Arial'; fill: #2f80ed"> </tspan>
      <tspan x="10.413092" y="-0.171875" style="font-style: italic; font-size: 7.6px; font-family: 'Arial'; fill: #2f80ed">S</tspan>
      <tspan x="15.498907" y="-0.171875" style="font-style: italic; font-size: 7.6px; font-family: 'Arial'; fill: #2f80ed">t</tspan>
      <tspan x="17.617377" y="-0.171875" style="font-style: italic; font-size: 7.6px; font-family: 'Arial'; fill: #2f80ed">a</tspan>
      <tspan x="21.858038" y="-0.171875" style="font-style: italic; font-size: 7.6px; font-family: 'Arial'; fill: #2f80ed">g</tspan>
      <tspan x="26.0987" y="-0.171875" style="font-style: italic; font-size: 7.6px; font-family: 'Arial'; fill: #2f80ed">e</tspan>
      <tspan x="30.339362" y="-0.171875" style="font-style: italic; font-size: 7.6px; font-family: 'Arial'; fill: #2f80ed"> </tspan>
      <tspan x="32.457831" y="-0.171875" style="font-style: italic; font-size: 7.6px; font-family: 'Arial'; fill: #2f80ed">A</tspan>
      <tspan x="37.543646" y="-0.171875" style="font-style: italic; font-size: 7.6px; font-family: 'Arial'; fill: #2f80ed">/</tspan>
      <tspan x="39.662115" y="-0.171875" style="font-style: italic; font-size: 7.6px; font-family: 'Arial'; fill: #2f80ed">B</tspan>
      <tspan x="44.747931" y="-0.171875" style="font-style: italic; font-size: 7.6px; font-family: 'Arial'; fill: #2f80ed"> </tspan>
      <tspan x="46.8664" y="-0.171875" style="font-style: italic; font-size: 7.6px; font-family: 'Arial'; fill: #2f80ed">i</tspan>
      <tspan x="48.560431" y="-0.171875" style="font-style: italic; font-size: 7.6px; font-family: 'Arial'; fill: #2f80ed">s</tspan>
      <tspan x="52.372931" y="-0.171875" style="font-style: italic; font-size: 7.6px; font-family: 'Arial'; fill: #2f80ed">o</tspan>
      <tspan x="56.613593" y="-0.171875" style="font-style: italic; font-size: 7.6px; font-family: 'Arial'; fill: #2f80ed">l</tspan>
      <tspan x="58.307623" y="-0.171875" style="font-style: italic; font-size: 7.6px; font-family: 'Arial'; fill: #2f80ed">a</tspan>
      <tspan x="62.548285" y="-0.171875" style="font-style: italic; font-size: 7.6px; font-family: 'Arial'; fill: #2f80ed">t</tspan>
      <tspan x="64.666754" y="-0.171875" style="font-style: italic; font-size: 7.6px; font-family: 'Arial'; fill: #2f80ed">e</tspan>
      <tspan x="68.907416" y="-0.171875" style="font-style: italic; font-size: 7.6px; font-family: 'Arial'; fill: #2f80ed">d</tspan>
      <tspan x="73.148077" y="-0.171875" style="font-style: italic; font-size: 7.6px; font-family: 'Arial'; fill: #2f80ed"> </tspan>
      <tspan x="75.266547" y="-0.171875" style="font-style: italic; font-size: 7.6px; font-family: 'Arial'; fill: #2f80ed">i</tspan>
      <tspan x="76.960577" y="-0.171875" style="font-style: italic; font-size: 7.6px; font-family: 'Arial'; fill: #2f80ed">n</tspan>
      <tspan x="81.201239" y="-0.171875" style="font-style: italic; font-size: 7.6px; font-family: 'Arial'; fill: #2f80ed">p</tspan>
      <tspan x="85.441901" y="-0.171875" style="font-style: italic; font-size: 7.6px; font-family: 'Arial'; fill: #2f80ed">u</tspan>
      <tspan x="89.682562" y="-0.171875" style="font-style: italic; font-size: 7.6px; font-family: 'Arial'; fill: #2f80ed">t</tspan>
      <tspan x="91.801031" y="-0.171875" style="font-style: italic; font-size: 7.6px; font-family: 'Arial'; fill: #2f80ed">s</tspan>
     </text>
    </g>
   </g>
   <g id="text_27">
    <!-- $I_J$: Stage C/D/E evidence set -->
    <g style="fill: #f2994a" transform="translate(711.162 89.032)">
     <text>
      <tspan x="0" y="-0.171875" style="font-style: oblique; font-size: 7.6px; font-family: 'DejaVu Sans'; fill: #f2994a">I</tspan>
      <tspan x="2.248779" y="1.140625" style="font-style: oblique; font-size: 5.32px; font-family: 'DejaVu Sans'; fill: #f2994a">J</tspan>
      <tspan x="4.041675" y="-0.171875" style="font-style: italic; font-size: 7.6px; font-family: 'Arial'; fill: #f2994a">:</tspan>
      <tspan x="6.160144" y="-0.171875" style="font-style: italic; font-size: 7.6px; font-family: 'Arial'; fill: #f2994a"> </tspan>
      <tspan x="8.278613" y="-0.171875" style="font-style: italic; font-size: 7.6px; font-family: 'Arial'; fill: #f2994a">S</tspan>
      <tspan x="13.364429" y="-0.171875" style="font-style: italic; font-size: 7.6px; font-family: 'Arial'; fill: #f2994a">t</tspan>
      <tspan x="15.482898" y="-0.171875" style="font-style: italic; font-size: 7.6px; font-family: 'Arial'; fill: #f2994a">a</tspan>
      <tspan x="19.72356" y="-0.171875" style="font-style: italic; font-size: 7.6px; font-family: 'Arial'; fill: #f2994a">g</tspan>
      <tspan x="23.964221" y="-0.171875" style="font-style: italic; font-size: 7.6px; font-family: 'Arial'; fill: #f2994a">e</tspan>
      <tspan x="28.204883" y="-0.171875" style="font-style: italic; font-size: 7.6px; font-family: 'Arial'; fill: #f2994a"> </tspan>
      <tspan x="30.323352" y="-0.171875" style="font-style: italic; font-size: 7.6px; font-family: 'Arial'; fill: #f2994a">C</tspan>
      <tspan x="35.829883" y="-0.171875" style="font-style: italic; font-size: 7.6px; font-family: 'Arial'; fill: #f2994a">/</tspan>
      <tspan x="37.948352" y="-0.171875" style="font-style: italic; font-size: 7.6px; font-family: 'Arial'; fill: #f2994a">D</tspan>
      <tspan x="43.454883" y="-0.171875" style="font-style: italic; font-size: 7.6px; font-family: 'Arial'; fill: #f2994a">/</tspan>
      <tspan x="45.573352" y="-0.171875" style="font-style: italic; font-size: 7.6px; font-family: 'Arial'; fill: #f2994a">E</tspan>
      <tspan x="50.659167" y="-0.171875" style="font-style: italic; font-size: 7.6px; font-family: 'Arial'; fill: #f2994a"> </tspan>
      <tspan x="52.777637" y="-0.171875" style="font-style: italic; font-size: 7.6px; font-family: 'Arial'; fill: #f2994a">e</tspan>
      <tspan x="57.018298" y="-0.171875" style="font-style: italic; font-size: 7.6px; font-family: 'Arial'; fill: #f2994a">v</tspan>
      <tspan x="60.830798" y="-0.171875" style="font-style: italic; font-size: 7.6px; font-family: 'Arial'; fill: #f2994a">i</tspan>
      <tspan x="62.524829" y="-0.171875" style="font-style: italic; font-size: 7.6px; font-family: 'Arial'; fill: #f2994a">d</tspan>
      <tspan x="66.765491" y="-0.171875" style="font-style: italic; font-size: 7.6px; font-family: 'Arial'; fill: #f2994a">e</tspan>
      <tspan x="71.006152" y="-0.171875" style="font-style: italic; font-size: 7.6px; font-family: 'Arial'; fill: #f2994a">n</tspan>
      <tspan x="75.246814" y="-0.171875" style="font-style: italic; font-size: 7.6px; font-family: 'Arial'; fill: #f2994a">c</tspan>
      <tspan x="79.059314" y="-0.171875" style="font-style: italic; font-size: 7.6px; font-family: 'Arial'; fill: #f2994a">e</tspan>
      <tspan x="83.299976" y="-0.171875" style="font-style: italic; font-size: 7.6px; font-family: 'Arial'; fill: #f2994a"> </tspan>
      <tspan x="85.418445" y="-0.171875" style="font-style: italic; font-size: 7.6px; font-family: 'Arial'; fill: #f2994a">s</tspan>
      <tspan x="89.230945" y="-0.171875" style="font-style: italic; font-size: 7.6px; font-family: 'Arial'; fill: #f2994a">e</tspan>
      <tspan x="93.471606" y="-0.171875" style="font-style: italic; font-size: 7.6px; font-family: 'Arial'; fill: #f2994a">t</tspan>
     </text>
    </g>
   </g>
   <g id="text_28">
    <text style="font-weight: 700; font-size: 7.8px; font-family: 'Arial'; fill: #1f2937" transform="translate(589.094672 238.832353)">Stage A</text>
    <text style="font-weight: 700; font-size: 7.8px; font-family: 'Arial'; fill: #1f2937" transform="translate(582.015562 247.173722)">post record</text>
   </g>
   <g id="text_29">
    <text style="font-weight: 700; font-size: 7.4px; font-family: 'Arial'; fill: #1f2937" transform="translate(633.571703 185.118216)">Abductive</text>
    <text style="font-weight: 700; font-size: 7.4px; font-family: 'Arial'; fill: #1f2937" transform="translate(643.850766 192.934697)">hyp.</text>
   </g>
   <g id="text_30">
    <text style="font-weight: 700; font-size: 7.4px; font-family: 'Arial'; fill: #1f2937" transform="translate(636.860656 225.589416)">Forward</text>
    <text style="font-weight: 700; font-size: 7.4px; font-family: 'Arial'; fill: #1f2937" transform="translate(643.850766 233.405897)">hyp.</text>
   </g>
   <g id="text_31">
    <text style="font-weight: 700; font-size: 7.4px; font-family: 'Arial'; fill: #1f2937" transform="translate(632.747875 266.105709)">Sequential</text>
    <text style="font-weight: 700; font-size: 7.4px; font-family: 'Arial'; fill: #1f2937" transform="translate(643.850766 273.922191)">hyp.</text>
   </g>
   <g id="text_32">
    <text style="font-style: italic; font-size: 7.1px; font-family: 'Arial'; fill: #2f80ed" transform="translate(596.83107 319.916955)">Stage B: no district</text>
    <text style="font-style: italic; font-size: 7.1px; font-family: 'Arial'; fill: #2f80ed" transform="translate(595.843727 327.592498)">profiles or evidence</text>
   </g>
   <g id="text_33">
    <text style="font-weight: 700; font-size: 7.8px; font-family: 'Arial'; fill: #1f2937" transform="translate(758.022422 178.400925)">Stage C</text>
    <text style="font-weight: 700; font-size: 7.8px; font-family: 'Arial'; fill: #1f2937" transform="translate(753.466734 186.742294)">data_spec</text>
   </g>
   <g id="text_34">
    <text style="font-weight: 700; font-size: 7.8px; font-family: 'Arial'; fill: #1f2937" transform="translate(758.022422 228.247566)">Stage D</text>
    <text style="font-weight: 700; font-size: 7.8px; font-family: 'Arial'; fill: #1f2937" transform="translate(746.750813 236.588934)">evidence.json</text>
   </g>
   <g id="text_35">
    <text style="font-weight: 700; font-size: 7.8px; font-family: 'Arial'; fill: #1f2937" transform="translate(758.237531 278.143566)">Stage E</text>
    <text style="font-weight: 700; font-size: 7.8px; font-family: 'Arial'; fill: #1f2937" transform="translate(754.995047 286.484934)">judgment</text>
   </g>
   <g id="text_36">
    <text style="font-weight: 700; font-size: 7.8px; font-family: 'Arial'; fill: #1f2937" transform="translate(753.045047 328.033716)">Supported</text>
    <text style="font-weight: 700; font-size: 7.8px; font-family: 'Arial'; fill: #1f2937" transform="translate(750.661781 336.386784)">final coding</text>
   </g>
   <g id="text_37">
    <text style="font-style: italic; font-size: 7.6px; font-family: 'Arial'; text-anchor: middle; fill: #f2994a" x="522.1395" y="341.8344" transform="rotate(-0 522.1395 341.8344)">outlier cells</text>
   </g>
   <g id="patch_30">
    <path d="M 81.738 332.964
L 206.172 332.964
Q 209.52 332.964 209.52 329.6376
L 209.52 306.3528
Q 209.52 303.0264 206.172 303.0264
L 81.738 303.0264
Q 78.39 303.0264 78.39 306.3528
L 78.39 329.6376
Q 78.39 332.964 81.738 332.964
z
" clip-path="url(#p6483336800)" style="fill: #f7f9fb; stroke: #1f2937; stroke-width: 1.5; stroke-linejoin: miter"/>
   </g>
   <g id="patch_31">
    <path d="M 143.955 96.568706
Q 143.955 103.43945 143.955 108.912652
" clip-path="url(#p6483336800)" style="fill: none; stroke: #9ca3af; stroke-width: 1.25; stroke-linecap: round"/>
    <path d="M 145.955 104.912652
L 143.955 108.912652
L 141.955 104.912652
z
" clip-path="url(#p6483336800)" style="fill: #9ca3af; stroke: #9ca3af; stroke-width: 1.25; stroke-linecap: round"/>
   </g>
   <g id="patch_32">
    <path d="M 143.955 144.247106
Q 143.955 151.11785 143.955 156.591052
" clip-path="url(#p6483336800)" style="fill: none; stroke: #2f80ed; stroke-width: 1.25; stroke-linecap: round"/>
    <path d="M 145.955 152.591052
L 143.955 156.591052
L 141.955 152.591052
z
" clip-path="url(#p6483336800)" style="fill: #2f80ed; stroke: #2f80ed; stroke-width: 1.25; stroke-linecap: round"/>
   </g>
   <g id="patch_33">
    <path d="M 143.955 191.925506
Q 143.955 198.79625 143.955 204.269452
" clip-path="url(#p6483336800)" style="fill: none; stroke: #2f80ed; stroke-width: 1.25; stroke-linecap: round"/>
    <path d="M 145.955 200.269452
L 143.955 204.269452
L 141.955 200.269452
z
" clip-path="url(#p6483336800)" style="fill: #2f80ed; stroke: #2f80ed; stroke-width: 1.25; stroke-linecap: round"/>
   </g>
   <g id="patch_34">
    <path d="M 143.955 239.603906
Q 143.955 246.47465 143.955 251.947852
" clip-path="url(#p6483336800)" style="fill: none; stroke: #2f80ed; stroke-width: 1.25; stroke-linecap: round"/>
    <path d="M 145.955 247.947852
L 143.955 251.947852
L 141.955 247.947852
z
" clip-path="url(#p6483336800)" style="fill: #2f80ed; stroke: #2f80ed; stroke-width: 1.25; stroke-linecap: round"/>
   </g>
   <g id="patch_35">
    <path d="M 143.955 287.282306
Q 143.955 294.15305 143.955 299.626252
" clip-path="url(#p6483336800)" style="fill: none; stroke: #2f80ed; stroke-width: 1.25; stroke-linecap: round"/>
    <path d="M 145.955 295.626252
L 143.955 299.626252
L 141.955 295.626252
z
" clip-path="url(#p6483336800)" style="fill: #2f80ed; stroke: #2f80ed; stroke-width: 1.25; stroke-linecap: round"/>
   </g>
   <g id="patch_36">
    <path d="M 404.82 104.885924
Q 404.82 110.927191 404.82 115.570916
" clip-path="url(#p6483336800)" style="fill: none; stroke: #2f80ed; stroke-width: 1.25; stroke-linecap: round"/>
    <path d="M 406.82 111.570916
L 404.82 115.570916
L 402.82 111.570916
z
" clip-path="url(#p6483336800)" style="fill: #2f80ed; stroke: #2f80ed; stroke-width: 1.25; stroke-linecap: round"/>
   </g>
   <g id="patch_37">
    <path d="M 404.82 148.683524
Q 404.82 154.724791 404.82 159.368516
" clip-path="url(#p6483336800)" style="fill: none; stroke: #2f80ed; stroke-width: 1.25; stroke-linecap: round"/>
    <path d="M 406.82 155.368516
L 404.82 159.368516
L 402.82 155.368516
z
" clip-path="url(#p6483336800)" style="fill: #2f80ed; stroke: #2f80ed; stroke-width: 1.25; stroke-linecap: round"/>
   </g>
   <g id="patch_38">
    <path d="M 404.82 192.481124
Q 404.82 198.522391 404.82 203.166116
" clip-path="url(#p6483336800)" style="fill: none; stroke: #2f80ed; stroke-width: 1.25; stroke-linecap: round"/>
    <path d="M 406.82 199.166116
L 404.82 203.166116
L 402.82 199.166116
z
" clip-path="url(#p6483336800)" style="fill: #2f80ed; stroke: #2f80ed; stroke-width: 1.25; stroke-linecap: round"/>
   </g>
   <g id="patch_39">
    <path d="M 404.82 236.278724
Q 404.82 242.319991 404.82 246.963716
" clip-path="url(#p6483336800)" style="fill: none; stroke: #2f80ed; stroke-width: 1.25; stroke-linecap: round"/>
    <path d="M 406.82 242.963716
L 404.82 246.963716
L 402.82 242.963716
z
" clip-path="url(#p6483336800)" style="fill: #2f80ed; stroke: #2f80ed; stroke-width: 1.25; stroke-linecap: round"/>
   </g>
   <g id="patch_40">
    <path d="M 404.82 280.076324
Q 404.82 286.117591 404.82 290.761316
" clip-path="url(#p6483336800)" style="fill: none; stroke: #2f80ed; stroke-width: 1.25; stroke-linecap: round"/>
    <path d="M 406.82 286.761316
L 404.82 290.761316
L 402.82 286.761316
z
" clip-path="url(#p6483336800)" style="fill: #2f80ed; stroke: #2f80ed; stroke-width: 1.25; stroke-linecap: round"/>
   </g>
   <g id="patch_41">
    <path d="M 404.82 323.873924
Q 404.82 329.915191 404.82 334.558916
" clip-path="url(#p6483336800)" style="fill: none; stroke: #f2994a; stroke-width: 1.25; stroke-linecap: round"/>
    <path d="M 406.82 330.558916
L 404.82 334.558916
L 402.82 330.558916
z
" clip-path="url(#p6483336800)" style="fill: #f2994a; stroke: #f2994a; stroke-width: 1.25; stroke-linecap: round"/>
   </g>
   <g id="text_38">
    <text style="font-weight: 700; font-size: 8.5px; font-family: 'Arial'; text-anchor: start; fill: #1f2937" x="85.086" y="317.530134" transform="rotate(-0 85.086 317.530134)">Classified post base</text>
   </g>
   <g id="patch_42">
    <path d="M 210.490451 316.244825
Q 272.992365 203.511844 334.762417 92.098901
" clip-path="url(#p6483336800)" style="fill: none; stroke: #1f2937; stroke-width: 1.35; stroke-linecap: round"/>
    <path d="M 330.335976 95.133142
L 334.762417 92.098901
L 334.533946 97.460599
z
" clip-path="url(#p6483336800)" style="fill: #1f2937; stroke: #1f2937; stroke-width: 1.35; stroke-linecap: round"/>
   </g>
   <g id="patch_43">
    <path d="M 635.310442 239.00034
Q 628.578015 214.045257 622.165924 190.27756
" clip-path="url(#p6483336800)" style="fill: none; stroke: #27ae60; stroke-width: 1.1; stroke-linecap: round"/>
    <path d="M 621.365746 194.222141
L 622.165924 190.27756
L 624.841482 193.284451
z
" clip-path="url(#p6483336800)" style="fill: #27ae60; stroke: #27ae60; stroke-width: 1.1; stroke-linecap: round"/>
   </g>
   <g id="patch_44">
    <path d="M 634.354989 239.579002
Q 628.575987 234.278954 623.70336 229.810162
" clip-path="url(#p6483336800)" style="fill: none; stroke: #27ae60; stroke-width: 1.1; stroke-linecap: round"/>
    <path d="M 625.139881 233.570003
L 623.70336 229.810162
L 627.573146 230.91685
z
" clip-path="url(#p6483336800)" style="fill: #27ae60; stroke: #27ae60; stroke-width: 1.1; stroke-linecap: round"/>
   </g>
   <g id="patch_45">
    <path d="M 634.888059 242.701088
Q 628.577096 254.518093 622.845491 265.250274
" clip-path="url(#p6483336800)" style="fill: none; stroke: #27ae60; stroke-width: 1.1; stroke-linecap: round"/>
    <path d="M 626.129157 262.922713
L 622.845491 265.250274
L 622.953642 261.226805
z
" clip-path="url(#p6483336800)" style="fill: #27ae60; stroke: #27ae60; stroke-width: 1.1; stroke-linecap: round"/>
   </g>
   <g id="patch_46">
    <path d="M 683.570255 186.885149
Q 705.861682 183.830307 727.045427 180.927262
" clip-path="url(#p6483336800)" style="fill: none; stroke: #f2994a; stroke-linecap: round"/>
    <path d="M 723.657823 179.776548
L 727.045427 180.927262
L 724.092294 182.946917
z
" clip-path="url(#p6483336800)" style="fill: #f2994a; stroke: #f2994a; stroke-linecap: round"/>
   </g>
   <g id="patch_47">
    <path d="M 683.025061 226.233033
Q 705.862143 204.064891 727.896993 182.675481
" clip-path="url(#p6483336800)" style="fill: none; stroke: #f2994a; stroke-linecap: round"/>
    <path d="M 724.486441 183.756284
L 727.896993 182.675481
L 726.715304 186.052404
z
" clip-path="url(#p6483336800)" style="fill: #f2994a; stroke: #f2994a; stroke-linecap: round"/>
   </g>
   <g id="patch_48">
    <path d="M 682.558387 266.348258
Q 705.861987 224.299819 728.623629 183.229275
" clip-path="url(#p6483336800)" style="fill: none; stroke: #f2994a; stroke-linecap: round"/>
    <path d="M 725.673003 185.25259
L 728.623629 183.229275
L 728.471905 186.803766
z
" clip-path="url(#p6483336800)" style="fill: #f2994a; stroke: #f2994a; stroke-linecap: round"/>
   </g>
   <g id="patch_49">
    <path d="M 772.542 196.364496
Q 772.542 205.449876 772.542 213.305419
" clip-path="url(#p6483336800)" style="fill: none; stroke: #2f80ed; stroke-width: 1.1; stroke-linecap: round"/>
    <path d="M 774.342 209.705419
L 772.542 213.305419
L 770.742 209.705419
z
" clip-path="url(#p6483336800)" style="fill: #2f80ed; stroke: #2f80ed; stroke-width: 1.1; stroke-linecap: round"/>
   </g>
   <g id="patch_50">
    <path d="M 772.542 246.260496
Q 772.542 255.345876 772.542 263.201419
" clip-path="url(#p6483336800)" style="fill: none; stroke: #f2994a; stroke-width: 1.1; stroke-linecap: round"/>
    <path d="M 774.342 259.601419
L 772.542 263.201419
L 770.742 259.601419
z
" clip-path="url(#p6483336800)" style="fill: #f2994a; stroke: #f2994a; stroke-width: 1.1; stroke-linecap: round"/>
   </g>
   <g id="patch_51">
    <path d="M 772.542 296.156496
Q 772.542 305.241876 772.542 313.097419
" clip-path="url(#p6483336800)" style="fill: none; stroke: #f2994a; stroke-width: 1.1; stroke-linecap: round"/>
    <path d="M 774.342 309.497419
L 772.542 313.097419
L 770.742 309.497419
z
" clip-path="url(#p6483336800)" style="fill: #f2994a; stroke: #f2994a; stroke-width: 1.1; stroke-linecap: round"/>
   </g>
   <g id="patch_52">
    <path d="M 474.49893 350.314581
Q 522.139605 296.373481 568.781126 243.563671
" clip-path="url(#p6483336800)" style="fill: none; stroke: #f2994a; stroke-width: 1.35; stroke-linecap: round"/>
    <path d="M 563.804777 245.572638
L 568.781126 243.563671
L 567.402489 248.750131
z
" clip-path="url(#p6483336800)" style="fill: #f2994a; stroke: #f2994a; stroke-width: 1.35; stroke-linecap: round"/>
   </g>
  </g>
 </g>
 <defs>
  <clipPath id="p6483336800">
   <rect x="8.64" y="8.64" width="864.9" height="432.432"/>
  </clipPath>
 </defs>
</svg>
