<?xml version="1.0" encoding="utf-8" standalone="no"?>
<!DOCTYPE svg PUBLIC "-//W3C//DTD SVG 1.1//EN"
  "http://www.w3.org/Graphics/SVG/1.1/DTD/svg11.dtd">
<svg xmlns:xlink="http://www.w3.org/1999/xlink" width="747pt" height="564.912pt" viewBox="0 0 747 564.912" xmlns="http://www.w3.org/2000/svg" version="1.1">
 <metadata>
  <rdf:RDF xmlns:dc="http://purl.org/dc/elements/1.1/" xmlns:cc="http://creativecommons.org/ns#" xmlns:rdf="http://www.w3.org/1999/02/22-rdf-syntax-ns#">
   <cc:Work>
    <dc:type rdf:resource="http://purl.org/dc/dcmitype/StillImage"/>
    <dc:date>2026-06-15T14:53:24.603544</dc:date>
    <dc:format>image/svg+xml</dc:format>
    <dc:creator>
     <cc:Agent>
      <dc:title>Matplotlib v3.10.9, https://matplotlib.org/</dc:title>
     </cc:Agent>
    </dc:creator>
   </cc:Work>
  </rdf:RDF>
 </metadata>
 <defs>
  <style type="text/css">*{stroke-linejoin: round; stroke-linecap: butt}</style>
 </defs>
 <g id="figure_1">
  <g id="patch_1">
   <path d="M 0 564.912
L 747 564.912
L 747 0
L 0 0
z
" style="fill: #ffffff"/>
  </g>
  <g id="axes_1">
   <g id="patch_2">
    <path d="M 29.214 540.252
L 293.706 540.252
Q 298.17 540.252 298.17 535.8168
L 298.17 29.0952
Q 298.17 24.66 293.706 24.66
L 29.214 24.66
Q 24.75 24.66 24.75 29.0952
L 24.75 535.8168
Q 24.75 540.252 29.214 540.252
z
" clip-path="url(#pc08c227dae)" style="fill: #ebf4ff; stroke-dasharray: 4.07,1.76; stroke-dashoffset: 0; stroke: #2f80ed; stroke-width: 1.1; stroke-linejoin: miter"/>
   </g>
   <g id="patch_3">
    <path d="M 322.164 540.252
L 717.786 540.252
Q 722.25 540.252 722.25 535.8168
L 722.25 29.0952
Q 722.25 24.66 717.786 24.66
L 322.164 24.66
Q 317.7 24.66 317.7 29.0952
L 317.7 535.8168
Q 317.7 540.252 322.164 540.252
z
" clip-path="url(#pc08c227dae)" style="fill: #f0faf4; stroke-dasharray: 4.07,1.76; stroke-dashoffset: 0; stroke: #27ae60; stroke-width: 1.1; stroke-linejoin: miter"/>
   </g>
   <g id="patch_4">
    <path d="M 337.788 501.444
L 472.824 501.444
Q 477.288 501.444 477.288 497.0088
L 477.288 115.0272
Q 477.288 110.592 472.824 110.592
L 337.788 110.592
Q 333.324 110.592 333.324 115.0272
L 333.324 497.0088
Q 333.324 501.444 337.788 501.444
z
" clip-path="url(#pc08c227dae)" style="fill: #ebf4ff; stroke-dasharray: 3.7,1.6; stroke-dashoffset: 0; stroke: #2f80ed; stroke-linejoin: miter"/>
   </g>
   <g id="patch_5">
    <path d="M 495.702 501.444
L 702.162 501.444
Q 706.626 501.444 706.626 497.0088
L 706.626 115.0272
Q 706.626 110.592 702.162 110.592
L 495.702 110.592
Q 491.238 110.592 491.238 115.0272
L 491.238 497.0088
Q 491.238 501.444 495.702 501.444
z
" clip-path="url(#pc08c227dae)" style="fill: #fff8ee; stroke-dasharray: 3.7,1.6; stroke-dashoffset: 0; stroke: #f2994a; stroke-linejoin: miter"/>
   </g>
   <g id="patch_6">
    <path d="M 67.437 99.504
L 180.711 99.504
Q 184.059 99.504 184.059 96.1776
L 184.059 72.8928
Q 184.059 69.5664 180.711 69.5664
L 67.437 69.5664
Q 64.089 69.5664 64.089 72.8928
L 64.089 96.1776
Q 64.089 99.504 67.437 99.504
z
" clip-path="url(#pc08c227dae)" style="fill: #9ca3af; opacity: 0.18; stroke: #9ca3af; stroke-width: 1.3; stroke-linejoin: miter"/>
   </g>
   <g id="patch_7">
    <path d="M 67.437 140.5296
L 180.711 140.5296
Q 184.059 140.5296 184.059 137.2032
L 184.059 113.9184
Q 184.059 110.592 180.711 110.592
L 67.437 110.592
Q 64.089 110.592 64.089 113.9184
L 64.089 137.2032
Q 64.089 140.5296 67.437 140.5296
z
" clip-path="url(#pc08c227dae)" style="fill: #2f80ed; opacity: 0.13; stroke: #2f80ed; stroke-width: 1.3; stroke-linejoin: miter"/>
   </g>
   <g id="patch_8">
    <path d="M 67.437 181.5552
L 180.711 181.5552
Q 184.059 181.5552 184.059 178.2288
L 184.059 154.944
Q 184.059 151.6176 180.711 151.6176
L 67.437 151.6176
Q 64.089 151.6176 64.089 154.944
L 64.089 178.2288
Q 64.089 181.5552 67.437 181.5552
z
" clip-path="url(#pc08c227dae)" style="fill: #2f80ed; opacity: 0.13; stroke: #2f80ed; stroke-width: 1.3; stroke-linejoin: miter"/>
   </g>
   <g id="patch_9">
    <path d="M 67.437 222.5808
L 180.711 222.5808
Q 184.059 222.5808 184.059 219.2544
L 184.059 195.9696
Q 184.059 192.6432 180.711 192.6432
L 67.437 192.6432
Q 64.089 192.6432 64.089 195.9696
L 64.089 219.2544
Q 64.089 222.5808 67.437 222.5808
z
" clip-path="url(#pc08c227dae)" style="fill: #2f80ed; opacity: 0.13; stroke: #2f80ed; stroke-width: 1.3; stroke-linejoin: miter"/>
   </g>
   <g id="patch_10">
    <path d="M 67.437 263.6064
L 180.711 263.6064
Q 184.059 263.6064 184.059 260.28
L 184.059 236.9952
Q 184.059 233.6688 180.711 233.6688
L 67.437 233.6688
Q 64.089 233.6688 64.089 236.9952
L 64.089 260.28
Q 64.089 263.6064 67.437 263.6064
z
" clip-path="url(#pc08c227dae)" style="fill: #2f80ed; opacity: 0.13; stroke: #2f80ed; stroke-width: 1.3; stroke-linejoin: miter"/>
   </g>
   <g id="patch_11">
    <path d="M 67.437 304.632
L 180.711 304.632
Q 184.059 304.632 184.059 301.3056
L 184.059 278.0208
Q 184.059 274.6944 180.711 274.6944
L 67.437 274.6944
Q 64.089 274.6944 64.089 278.0208
L 64.089 301.3056
Q 64.089 304.632 67.437 304.632
z
" clip-path="url(#pc08c227dae)" style="fill: #2f80ed; opacity: 0.13; stroke: #2f80ed; stroke-width: 1.3; stroke-linejoin: miter"/>
   </g>
   <g id="patch_12">
    <path d="M 67.437 345.6576
L 180.711 345.6576
Q 184.059 345.6576 184.059 342.3312
L 184.059 319.0464
Q 184.059 315.72 180.711 315.72
L 67.437 315.72
Q 64.089 315.72 64.089 319.0464
L 64.089 342.3312
Q 64.089 345.6576 67.437 345.6576
z
" clip-path="url(#pc08c227dae)" style="fill: #2f80ed; opacity: 0.13; stroke: #2f80ed; stroke-width: 1.3; stroke-linejoin: miter"/>
   </g>
   <g id="patch_13">
    <path d="M 348.948 346.212
L 388.008 346.212
Q 391.356 346.212 391.356 342.8856
L 391.356 318.492
Q 391.356 315.1656 388.008 315.1656
L 348.948 315.1656
Q 345.6 315.1656 345.6 318.492
L 345.6 342.8856
Q 345.6 346.212 348.948 346.212
z
" clip-path="url(#pc08c227dae)" style="fill: #9ca3af; opacity: 0.18; stroke: #9ca3af; stroke-width: 1.3; stroke-linejoin: miter"/>
   </g>
   <g id="patch_14">
    <path d="M 406.98 305.7408
L 466.128 305.7408
Q 469.476 305.7408 469.476 302.4144
L 469.476 279.1296
Q 469.476 275.8032 466.128 275.8032
L 406.98 275.8032
Q 403.632 275.8032 403.632 279.1296
L 403.632 302.4144
Q 403.632 305.7408 406.98 305.7408
z
" clip-path="url(#pc08c227dae)" style="fill: #27ae60; opacity: 0.15; stroke: #27ae60; stroke-width: 1.3; stroke-linejoin: miter"/>
   </g>
   <g id="patch_15">
    <path d="M 406.98 345.6576
L 466.128 345.6576
Q 469.476 345.6576 469.476 342.3312
L 469.476 319.0464
Q 469.476 315.72 466.128 315.72
L 406.98 315.72
Q 403.632 315.72 403.632 319.0464
L 403.632 342.3312
Q 403.632 345.6576 406.98 345.6576
z
" clip-path="url(#pc08c227dae)" style="fill: #27ae60; opacity: 0.15; stroke: #27ae60; stroke-width: 1.3; stroke-linejoin: miter"/>
   </g>
   <g id="patch_16">
    <path d="M 406.98 385.5744
L 466.128 385.5744
Q 469.476 385.5744 469.476 382.248
L 469.476 358.9632
Q 469.476 355.6368 466.128 355.6368
L 406.98 355.6368
Q 403.632 355.6368 403.632 358.9632
L 403.632 382.248
Q 403.632 385.5744 406.98 385.5744
z
" clip-path="url(#pc08c227dae)" style="fill: #27ae60; opacity: 0.15; stroke: #27ae60; stroke-width: 1.3; stroke-linejoin: miter"/>
   </g>
   <g id="patch_17">
    <path d="M 511.326 275.2488
L 582.75 275.2488
Q 586.098 275.2488 586.098 271.9224
L 586.098 246.42
Q 586.098 243.0936 582.75 243.0936
L 511.326 243.0936
Q 507.978 243.0936 507.978 246.42
L 507.978 271.9224
Q 507.978 275.2488 511.326 275.2488
z
" clip-path="url(#pc08c227dae)" style="fill: #f2994a; opacity: 0.13; stroke: #f2994a; stroke-width: 1.3; stroke-linejoin: miter"/>
   </g>
   <g id="patch_18">
    <path d="M 511.326 351.2016
L 582.75 351.2016
Q 586.098 351.2016 586.098 347.8752
L 586.098 313.5024
Q 586.098 310.176 582.75 310.176
L 511.326 310.176
Q 507.978 310.176 507.978 313.5024
L 507.978 347.8752
Q 507.978 351.2016 511.326 351.2016
z
" clip-path="url(#pc08c227dae)" style="fill: #2f80ed; opacity: 0.13; stroke: #2f80ed; stroke-width: 1.3; stroke-linejoin: miter"/>
   </g>
   <g id="patch_19">
    <path d="M 617.346 348.984
L 695.466 348.984
Q 698.814 348.984 698.814 345.6576
L 698.814 315.72
Q 698.814 312.3936 695.466 312.3936
L 617.346 312.3936
Q 613.998 312.3936 613.998 315.72
L 613.998 345.6576
Q 613.998 348.984 617.346 348.984
z
" clip-path="url(#pc08c227dae)" style="fill: #f2994a; opacity: 0.15; stroke: #f2994a; stroke-width: 1.3; stroke-linejoin: miter"/>
   </g>
   <g id="patch_20">
    <path d="M 617.346 409.968
L 695.466 409.968
Q 698.814 409.968 698.814 406.6416
L 698.814 381.1392
Q 698.814 377.8128 695.466 377.8128
L 617.346 377.8128
Q 613.998 377.8128 613.998 381.1392
L 613.998 406.6416
Q 613.998 409.968 617.346 409.968
z
" clip-path="url(#pc08c227dae)" style="fill: #9ca3af; opacity: 0.18; stroke: #9ca3af; stroke-width: 1.3; stroke-linejoin: miter"/>
   </g>
   <g id="text_1">
    <text style="font-weight: 700; font-size: 10.5px; font-family: 'Arial'; text-anchor: start; fill: #2f80ed" x="35.91" y="37.847672" transform="rotate(-0 35.91 37.847672)">Stage 2 -- EB Aggregation</text>
   </g>
   <g id="text_2">
    <text style="font-style: italic; font-size: 8.5px; font-family: 'Arial'; text-anchor: start; fill: #6b7280" x="35.91" y="55.241334" transform="rotate(-0 35.91 55.241334)">Unit of analysis: district x dimension cell</text>
   </g>
   <g id="text_3">
    <text style="font-weight: 700; font-size: 10.5px; font-family: 'Arial'; text-anchor: start; fill: #27ae60" x="328.86" y="37.847672" transform="rotate(-0 328.86 37.847672)">Stage 3 -- Evidence-Grounded Agent Judgment</text>
   </g>
   <g id="text_4">
    <text style="font-style: italic; font-size: 8.5px; font-family: 'Arial'; text-anchor: start; fill: #6b7280" x="328.86" y="55.241334" transform="rotate(-0 328.86 55.241334)">Unit of analysis: individual post</text>
   </g>
   <g id="text_5">
    <text style="font-weight: 700; font-size: 8.2px; font-family: 'Arial'; fill: #1f2937" transform="translate(92.634047 82.266234)">Classified posts</text>
    <text style="font-weight: 700; font-size: 8.2px; font-family: 'Arial'; fill: #1f2937" transform="translate(106.760469 91.047666)">(Stage 1)</text>
   </g>
   <g id="text_6">
    <text style="font-weight: 700; font-size: 8.2px; font-family: 'Arial'; fill: #1f2937" transform="translate(99.937813 123.248016)">Admin-dong</text>
    <text style="font-weight: 700; font-size: 8.2px; font-family: 'Arial'; fill: #1f2937" transform="translate(109.947578 132.017147)">linkage</text>
   </g>
   <g id="text_7">
    <text style="font-weight: 700; font-size: 8.2px; font-family: 'Arial'; fill: #1f2937" transform="translate(102.894938 158.837241)">Population</text>
    <text style="font-weight: 700; font-size: 8.2px; font-family: 'Arial'; fill: #1f2937" transform="translate(105.845656 167.498747)">exposure</text>
   </g>
   <g id="text_8">
    <text style="font-style: italic; font-size: 7px; font-family: 'Arial'; text-anchor: middle; fill: #6b7280" x="124.074" y="177.225394" transform="rotate(-0 124.074 177.225394)">hourly person-time</text>
   </g>
   <g id="text_9">
    <text style="font-weight: 700; font-size: 8.2px; font-family: 'Arial'; fill: #1f2937" transform="translate(105.160828 205.406841)">Observed</text>
    <text style="font-weight: 700; font-size: 8.2px; font-family: 'Arial'; fill: #1f2937" transform="translate(106.760469 214.068347)">post rate</text>
   </g>
   <g id="text_10">
    <text style="font-weight: 700; font-size: 8.2px; font-family: 'Arial'; text-anchor: middle; fill: #1f2937" x="124.074" y="245.165381" transform="rotate(-0 124.074 245.165381)">EB shrinkage</text>
   </g>
   <g id="text_11">
    <text style="font-style: italic; font-size: 7px; font-family: 'Arial'; text-anchor: middle; fill: #6b7280" x="124.074" y="259.317609" transform="rotate(-0 124.074 259.317609)">prior + observed rate</text>
   </g>
   <g id="text_12">
    <text style="font-weight: 700; font-size: 8.2px; font-family: 'Arial'; fill: #1f2937" transform="translate(97.415031 287.344266)">Posterior rate</text>
    <text style="font-weight: 700; font-size: 8.2px; font-family: 'Arial'; fill: #1f2937" transform="translate(98.781484 296.125697)">(per 100k py)</text>
   </g>
   <g id="text_13">
    <text style="font-weight: 700; font-size: 8.2px; font-family: 'Arial'; fill: #1f2937" transform="translate(89.722406 328.421756)">Within-dimension</text>
    <text style="font-weight: 700; font-size: 8.2px; font-family: 'Arial'; fill: #1f2937" transform="translate(111.090453 337.203188)">z_shift</text>
   </g>
   <g id="text_14">
    <!-- $I_R$: Stage A/B restricted inputs -->
    <g style="fill: #2f80ed" transform="translate(338.904 120.7212)">
     <text>
      <tspan x="0" y="-0.171875" style="font-style: oblique; font-size: 7.8px; font-family: 'DejaVu Sans'; fill: #2f80ed">I</tspan>
      <tspan x="2.285645" y="1.140625" style="font-style: oblique; font-size: 5.46px; font-family: 'DejaVu Sans'; fill: #2f80ed">R</tspan>
      <tspan x="6.273816" y="-0.171875" style="font-style: italic; font-size: 7.8px; font-family: 'Arial'; fill: #2f80ed">:</tspan>
      <tspan x="8.427014" y="-0.171875" style="font-style: italic; font-size: 7.8px; font-family: 'Arial'; fill: #2f80ed"> </tspan>
      <tspan x="10.580212" y="-0.171875" style="font-style: italic; font-size: 7.8px; font-family: 'Arial'; fill: #2f80ed">S</tspan>
      <tspan x="15.749402" y="-0.171875" style="font-style: italic; font-size: 7.8px; font-family: 'Arial'; fill: #2f80ed">t</tspan>
      <tspan x="17.9026" y="-0.171875" style="font-style: italic; font-size: 7.8px; font-family: 'Arial'; fill: #2f80ed">a</tspan>
      <tspan x="22.212781" y="-0.171875" style="font-style: italic; font-size: 7.8px; font-family: 'Arial'; fill: #2f80ed">g</tspan>
      <tspan x="26.522961" y="-0.171875" style="font-style: italic; font-size: 7.8px; font-family: 'Arial'; fill: #2f80ed">e</tspan>
      <tspan x="30.833142" y="-0.171875" style="font-style: italic; font-size: 7.8px; font-family: 'Arial'; fill: #2f80ed"> </tspan>
      <tspan x="32.98634" y="-0.171875" style="font-style: italic; font-size: 7.8px; font-family: 'Arial'; fill: #2f80ed">A</tspan>
      <tspan x="38.15553" y="-0.171875" style="font-style: italic; font-size: 7.8px; font-family: 'Arial'; fill: #2f80ed">/</tspan>
      <tspan x="40.308728" y="-0.171875" style="font-style: italic; font-size: 7.8px; font-family: 'Arial'; fill: #2f80ed">B</tspan>
      <tspan x="45.477917" y="-0.171875" style="font-style: italic; font-size: 7.8px; font-family: 'Arial'; fill: #2f80ed"> </tspan>
      <tspan x="47.631116" y="-0.171875" style="font-style: italic; font-size: 7.8px; font-family: 'Arial'; fill: #2f80ed">r</tspan>
      <tspan x="50.211926" y="-0.171875" style="font-style: italic; font-size: 7.8px; font-family: 'Arial'; fill: #2f80ed">e</tspan>
      <tspan x="54.522107" y="-0.171875" style="font-style: italic; font-size: 7.8px; font-family: 'Arial'; fill: #2f80ed">s</tspan>
      <tspan x="58.397107" y="-0.171875" style="font-style: italic; font-size: 7.8px; font-family: 'Arial'; fill: #2f80ed">t</tspan>
      <tspan x="60.550305" y="-0.171875" style="font-style: italic; font-size: 7.8px; font-family: 'Arial'; fill: #2f80ed">r</tspan>
      <tspan x="63.131116" y="-0.171875" style="font-style: italic; font-size: 7.8px; font-family: 'Arial'; fill: #2f80ed">i</tspan>
      <tspan x="64.852917" y="-0.171875" style="font-style: italic; font-size: 7.8px; font-family: 'Arial'; fill: #2f80ed">c</tspan>
      <tspan x="68.727917" y="-0.171875" style="font-style: italic; font-size: 7.8px; font-family: 'Arial'; fill: #2f80ed">t</tspan>
      <tspan x="70.881116" y="-0.171875" style="font-style: italic; font-size: 7.8px; font-family: 'Arial'; fill: #2f80ed">e</tspan>
      <tspan x="75.191296" y="-0.171875" style="font-style: italic; font-size: 7.8px; font-family: 'Arial'; fill: #2f80ed">d</tspan>
      <tspan x="79.501477" y="-0.171875" style="font-style: italic; font-size: 7.8px; font-family: 'Arial'; fill: #2f80ed"> </tspan>
      <tspan x="81.654675" y="-0.171875" style="font-style: italic; font-size: 7.8px; font-family: 'Arial'; fill: #2f80ed">i</tspan>
      <tspan x="83.376477" y="-0.171875" style="font-style: italic; font-size: 7.8px; font-family: 'Arial'; fill: #2f80ed">n</tspan>
      <tspan x="87.686658" y="-0.171875" style="font-style: italic; font-size: 7.8px; font-family: 'Arial'; fill: #2f80ed">p</tspan>
      <tspan x="91.996838" y="-0.171875" style="font-style: italic; font-size: 7.8px; font-family: 'Arial'; fill: #2f80ed">u</tspan>
      <tspan x="96.307019" y="-0.171875" style="font-style: italic; font-size: 7.8px; font-family: 'Arial'; fill: #2f80ed">t</tspan>
      <tspan x="98.460217" y="-0.171875" style="font-style: italic; font-size: 7.8px; font-family: 'Arial'; fill: #2f80ed">s</tspan>
     </text>
    </g>
   </g>
   <g id="text_15">
    <text style="font-style: italic; font-size: 7.6px; font-family: 'Arial'; text-anchor: start; fill: #2f80ed" x="338.904" y="133.772738" transform="rotate(-0 338.904 133.772738)">post + metadata + codebook</text>
   </g>
   <g id="text_16">
    <!-- $I_J$: Stage C/D/E evidence set -->
    <g style="fill: #f2994a" transform="translate(496.818 120.7212)">
     <text>
      <tspan x="0" y="-0.171875" style="font-style: oblique; font-size: 7.8px; font-family: 'DejaVu Sans'; fill: #f2994a">I</tspan>
      <tspan x="2.285645" y="1.140625" style="font-style: oblique; font-size: 5.46px; font-family: 'DejaVu Sans'; fill: #f2994a">J</tspan>
      <tspan x="4.104346" y="-0.171875" style="font-style: italic; font-size: 7.8px; font-family: 'Arial'; fill: #f2994a">:</tspan>
      <tspan x="6.257544" y="-0.171875" style="font-style: italic; font-size: 7.8px; font-family: 'Arial'; fill: #f2994a"> </tspan>
      <tspan x="8.410742" y="-0.171875" style="font-style: italic; font-size: 7.8px; font-family: 'Arial'; fill: #f2994a">S</tspan>
      <tspan x="13.579932" y="-0.171875" style="font-style: italic; font-size: 7.8px; font-family: 'Arial'; fill: #f2994a">t</tspan>
      <tspan x="15.73313" y="-0.171875" style="font-style: italic; font-size: 7.8px; font-family: 'Arial'; fill: #f2994a">a</tspan>
      <tspan x="20.043311" y="-0.171875" style="font-style: italic; font-size: 7.8px; font-family: 'Arial'; fill: #f2994a">g</tspan>
      <tspan x="24.353491" y="-0.171875" style="font-style: italic; font-size: 7.8px; font-family: 'Arial'; fill: #f2994a">e</tspan>
      <tspan x="28.663672" y="-0.171875" style="font-style: italic; font-size: 7.8px; font-family: 'Arial'; fill: #f2994a"> </tspan>
      <tspan x="30.81687" y="-0.171875" style="font-style: italic; font-size: 7.8px; font-family: 'Arial'; fill: #f2994a">C</tspan>
      <tspan x="36.413672" y="-0.171875" style="font-style: italic; font-size: 7.8px; font-family: 'Arial'; fill: #f2994a">/</tspan>
      <tspan x="38.56687" y="-0.171875" style="font-style: italic; font-size: 7.8px; font-family: 'Arial'; fill: #f2994a">D</tspan>
      <tspan x="44.163672" y="-0.171875" style="font-style: italic; font-size: 7.8px; font-family: 'Arial'; fill: #f2994a">/</tspan>
      <tspan x="46.31687" y="-0.171875" style="font-style: italic; font-size: 7.8px; font-family: 'Arial'; fill: #f2994a">E</tspan>
      <tspan x="51.48606" y="-0.171875" style="font-style: italic; font-size: 7.8px; font-family: 'Arial'; fill: #f2994a"> </tspan>
      <tspan x="53.639258" y="-0.171875" style="font-style: italic; font-size: 7.8px; font-family: 'Arial'; fill: #f2994a">e</tspan>
      <tspan x="57.949438" y="-0.171875" style="font-style: italic; font-size: 7.8px; font-family: 'Arial'; fill: #f2994a">v</tspan>
      <tspan x="61.824438" y="-0.171875" style="font-style: italic; font-size: 7.8px; font-family: 'Arial'; fill: #f2994a">i</tspan>
      <tspan x="63.54624" y="-0.171875" style="font-style: italic; font-size: 7.8px; font-family: 'Arial'; fill: #f2994a">d</tspan>
      <tspan x="67.856421" y="-0.171875" style="font-style: italic; font-size: 7.8px; font-family: 'Arial'; fill: #f2994a">e</tspan>
      <tspan x="72.166602" y="-0.171875" style="font-style: italic; font-size: 7.8px; font-family: 'Arial'; fill: #f2994a">n</tspan>
      <tspan x="76.476782" y="-0.171875" style="font-style: italic; font-size: 7.8px; font-family: 'Arial'; fill: #f2994a">c</tspan>
      <tspan x="80.351782" y="-0.171875" style="font-style: italic; font-size: 7.8px; font-family: 'Arial'; fill: #f2994a">e</tspan>
      <tspan x="84.661963" y="-0.171875" style="font-style: italic; font-size: 7.8px; font-family: 'Arial'; fill: #f2994a"> </tspan>
      <tspan x="86.815161" y="-0.171875" style="font-style: italic; font-size: 7.8px; font-family: 'Arial'; fill: #f2994a">s</tspan>
      <tspan x="90.690161" y="-0.171875" style="font-style: italic; font-size: 7.8px; font-family: 'Arial'; fill: #f2994a">e</tspan>
      <tspan x="95.000342" y="-0.171875" style="font-style: italic; font-size: 7.8px; font-family: 'Arial'; fill: #f2994a">t</tspan>
     </text>
    </g>
   </g>
   <g id="text_17">
    <text style="font-style: italic; font-size: 7.6px; font-family: 'Arial'; text-anchor: start; fill: #f2994a" x="496.818" y="133.772738" transform="rotate(-0 496.818 133.772738)">data_spec + evidence values + coding scheme</text>
   </g>
   <g id="text_18">
    <text style="font-weight: 700; font-size: 7.6px; font-family: 'Arial'; fill: #1f2937" transform="translate(354.473219 328.641431)">Stage A</text>
    <text style="font-weight: 700; font-size: 7.6px; font-family: 'Arial'; fill: #1f2937" transform="translate(360.457625 336.768919)">post</text>
   </g>
   <g id="text_19">
    <text style="font-weight: 700; font-size: 7.8px; font-family: 'Arial'; fill: #1f2937" transform="translate(417.702984 288.623222)">Abductive</text>
    <text style="font-weight: 700; font-size: 7.8px; font-family: 'Arial'; fill: #1f2937" transform="translate(428.537672 296.862216)">hyp.</text>
   </g>
   <g id="text_20">
    <text style="font-weight: 700; font-size: 7.8px; font-family: 'Arial'; fill: #1f2937" transform="translate(421.169719 328.540022)">Forward</text>
    <text style="font-weight: 700; font-size: 7.8px; font-family: 'Arial'; fill: #1f2937" transform="translate(428.537672 336.779016)">hyp.</text>
   </g>
   <g id="text_21">
    <text style="font-weight: 700; font-size: 7.8px; font-family: 'Arial'; fill: #1f2937" transform="translate(416.834625 368.504353)">Sequential</text>
    <text style="font-weight: 700; font-size: 7.8px; font-family: 'Arial'; fill: #1f2937" transform="translate(428.537672 376.743347)">hyp.</text>
   </g>
   <g id="text_22">
    <text style="font-weight: 700; font-size: 7.9px; font-family: 'Arial'; fill: #1f2937" transform="translate(532.332273 257.041163)">Stage C</text>
    <text style="font-weight: 700; font-size: 7.9px; font-family: 'Arial'; fill: #1f2937" transform="translate(527.71818 265.489472)">data_spec</text>
   </g>
   <g id="text_23">
    <text style="font-weight: 700; font-size: 7.8px; font-family: 'Arial'; fill: #1f2937" transform="translate(532.518422 328.536366)">Stage D</text>
    <text style="font-weight: 700; font-size: 7.8px; font-family: 'Arial'; fill: #1f2937" transform="translate(521.246813 336.877734)">evidence.json</text>
   </g>
   <g id="text_24">
    <text style="font-weight: 700; font-size: 8.2px; font-family: 'Arial'; fill: #1f2937" transform="translate(641.367969 328.425984)">Stage E</text>
    <text style="font-weight: 700; font-size: 8.2px; font-family: 'Arial'; fill: #1f2937" transform="translate(637.959203 337.195116)">judgment</text>
   </g>
   <g id="text_25">
    <text style="font-weight: 700; font-size: 7.5px; font-family: 'Arial'; fill: #1f2937" transform="translate(628.702289 391.765908)">Supported-only</text>
    <text style="font-weight: 700; font-size: 7.5px; font-family: 'Arial'; fill: #1f2937" transform="translate(635.367328 399.896142)">final coding</text>
   </g>
   <g id="text_26">
    <text style="font-style: italic; font-size: 6.8px; font-family: 'Arial'; fill: #2f80ed" transform="translate(515.857875 366.130988)">EB posterior, z_shift,</text>
    <text style="font-style: italic; font-size: 6.8px; font-family: 'Arial'; fill: #2f80ed" transform="translate(503.57325 373.323262)">exposure, external indicators</text>
   </g>
   <g id="text_27">
    <text style="font-style: italic; font-size: 6.8px; font-family: 'Arial'; fill: #6b7280" transform="translate(619.170156 425.923313)">unsupported hypotheses</text>
    <text style="font-style: italic; font-size: 6.8px; font-family: 'Arial'; fill: #6b7280" transform="translate(642.796969 433.195275)">excluded</text>
   </g>
   <g id="patch_21">
    <path d="M 124.074 101.504496
Q 124.074 105.047646 124.074 107.137353
" clip-path="url(#pc08c227dae)" style="fill: none; stroke: #2f80ed; stroke-width: 1.3; stroke-linecap: round"/>
    <path d="M 126.074 103.137353
L 124.074 107.137353
L 122.074 103.137353
z
" clip-path="url(#pc08c227dae)" style="fill: #2f80ed; stroke: #2f80ed; stroke-width: 1.3; stroke-linecap: round"/>
   </g>
   <g id="patch_22">
    <path d="M 124.074 142.530096
Q 124.074 146.073246 124.074 148.162953
" clip-path="url(#pc08c227dae)" style="fill: none; stroke: #2f80ed; stroke-width: 1.3; stroke-linecap: round"/>
    <path d="M 126.074 144.162953
L 124.074 148.162953
L 122.074 144.162953
z
" clip-path="url(#pc08c227dae)" style="fill: #2f80ed; stroke: #2f80ed; stroke-width: 1.3; stroke-linecap: round"/>
   </g>
   <g id="patch_23">
    <path d="M 124.074 183.555696
Q 124.074 187.098846 124.074 189.188553
" clip-path="url(#pc08c227dae)" style="fill: none; stroke: #2f80ed; stroke-width: 1.3; stroke-linecap: round"/>
    <path d="M 126.074 185.188553
L 124.074 189.188553
L 122.074 185.188553
z
" clip-path="url(#pc08c227dae)" style="fill: #2f80ed; stroke: #2f80ed; stroke-width: 1.3; stroke-linecap: round"/>
   </g>
   <g id="patch_24">
    <path d="M 124.074 224.581296
Q 124.074 228.124446 124.074 230.214153
" clip-path="url(#pc08c227dae)" style="fill: none; stroke: #2f80ed; stroke-width: 1.3; stroke-linecap: round"/>
    <path d="M 126.074 226.214153
L 124.074 230.214153
L 122.074 226.214153
z
" clip-path="url(#pc08c227dae)" style="fill: #2f80ed; stroke: #2f80ed; stroke-width: 1.3; stroke-linecap: round"/>
   </g>
   <g id="patch_25">
    <path d="M 124.074 265.606896
Q 124.074 269.150046 124.074 271.239753
" clip-path="url(#pc08c227dae)" style="fill: none; stroke: #2f80ed; stroke-width: 1.3; stroke-linecap: round"/>
    <path d="M 126.074 267.239753
L 124.074 271.239753
L 122.074 267.239753
z
" clip-path="url(#pc08c227dae)" style="fill: #2f80ed; stroke: #2f80ed; stroke-width: 1.3; stroke-linecap: round"/>
   </g>
   <g id="patch_26">
    <path d="M 124.074 306.632496
Q 124.074 310.175646 124.074 312.265353
" clip-path="url(#pc08c227dae)" style="fill: none; stroke: #2f80ed; stroke-width: 1.3; stroke-linecap: round"/>
    <path d="M 126.074 308.265353
L 124.074 312.265353
L 122.074 308.265353
z
" clip-path="url(#pc08c227dae)" style="fill: #2f80ed; stroke: #2f80ed; stroke-width: 1.3; stroke-linecap: round"/>
   </g>
   <g id="patch_27">
    <path d="M 212.238 346.7664
L 284.778 346.7664
Q 288.126 346.7664 288.126 343.44
L 288.126 317.9376
Q 288.126 314.6112 284.778 314.6112
L 212.238 314.6112
Q 208.89 314.6112 208.89 317.9376
L 208.89 343.44
Q 208.89 346.7664 212.238 346.7664
z
" clip-path="url(#pc08c227dae)" style="fill: #fff8ee; stroke: #f2994a; stroke-width: 1.5; stroke-linejoin: miter"/>
   </g>
   <g id="patch_28">
    <path d="M 186.056513 330.6888
Q 196.474013 330.6888 205.326265 330.6888
" clip-path="url(#pc08c227dae)" style="fill: none; stroke: #f2994a; stroke-width: 1.4; stroke-linecap: round"/>
    <path d="M 201.326265 328.6888
L 205.326265 330.6888
L 201.326265 332.6888
z
" clip-path="url(#pc08c227dae)" style="fill: #f2994a; stroke: #f2994a; stroke-width: 1.4; stroke-linecap: round"/>
   </g>
   <g id="patch_29">
    <path d="M 391.944175 328.776282
Q 397.493466 310.732135 402.615514 294.077218
" clip-path="url(#pc08c227dae)" style="fill: none; stroke: #27ae60; stroke-width: 1.3; stroke-linecap: round"/>
    <path d="M 399.528064 297.312593
L 402.615514 294.077218
L 403.351344 298.488404
z
" clip-path="url(#pc08c227dae)" style="fill: #27ae60; stroke: #27ae60; stroke-width: 1.3; stroke-linecap: round"/>
   </g>
   <g id="patch_30">
    <path d="M 393.355046 330.6888
Q 397.493678 330.6888 400.178865 330.6888
" clip-path="url(#pc08c227dae)" style="fill: none; stroke: #27ae60; stroke-width: 1.3; stroke-linecap: round"/>
    <path d="M 396.178865 328.6888
L 400.178865 330.6888
L 396.178865 332.6888
z
" clip-path="url(#pc08c227dae)" style="fill: #27ae60; stroke: #27ae60; stroke-width: 1.3; stroke-linecap: round"/>
   </g>
   <g id="patch_31">
    <path d="M 391.944175 332.601318
Q 397.493466 350.645465 402.615514 367.300382
" clip-path="url(#pc08c227dae)" style="fill: none; stroke: #27ae60; stroke-width: 1.3; stroke-linecap: round"/>
    <path d="M 403.351344 362.889196
L 402.615514 367.300382
L 399.528064 364.065007
z
" clip-path="url(#pc08c227dae)" style="fill: #27ae60; stroke: #27ae60; stroke-width: 1.3; stroke-linecap: round"/>
   </g>
   <g id="patch_32">
    <path d="M 470.850736 289.322202
Q 488.726616 270.470277 505.602422 252.673032
" clip-path="url(#pc08c227dae)" style="fill: none; stroke: #f2994a; stroke-width: 1.3; stroke-linecap: round"/>
    <path d="M 501.398848 254.199455
L 505.602422 252.673032
L 504.301416 256.951745
z
" clip-path="url(#pc08c227dae)" style="fill: #f2994a; stroke: #f2994a; stroke-width: 1.3; stroke-linecap: round"/>
   </g>
   <g id="patch_33">
    <path d="M 470.42304 328.92967
Q 488.727186 294.929654 506.342359 262.209409
" clip-path="url(#pc08c227dae)" style="fill: none; stroke: #f2994a; stroke-width: 1.3; stroke-linecap: round"/>
    <path d="M 502.685226 264.783391
L 506.342359 262.209409
L 506.207264 266.679504
z
" clip-path="url(#pc08c227dae)" style="fill: #f2994a; stroke: #f2994a; stroke-width: 1.3; stroke-linecap: round"/>
   </g>
   <g id="patch_34">
    <path d="M 470.179818 368.733159
Q 488.726512 319.391427 506.761815 271.410201
" clip-path="url(#pc08c227dae)" style="fill: none; stroke: #f2994a; stroke-width: 1.3; stroke-linecap: round"/>
    <path d="M 503.48231 274.450735
L 506.761815 271.410201
L 507.22654 275.858125
z
" clip-path="url(#pc08c227dae)" style="fill: #f2994a; stroke: #f2994a; stroke-width: 1.3; stroke-linecap: round"/>
   </g>
   <g id="patch_35">
    <path d="M 547.038 277.248416
Q 547.038 292.713367 547.038 306.780776
" clip-path="url(#pc08c227dae)" style="fill: none; stroke: #2f80ed; stroke-width: 1.25; stroke-linecap: round"/>
    <path d="M 549.038 302.780776
L 547.038 306.780776
L 545.038 302.780776
z
" clip-path="url(#pc08c227dae)" style="fill: #2f80ed; stroke: #2f80ed; stroke-width: 1.25; stroke-linecap: round"/>
   </g>
   <g id="patch_36">
    <path d="M 586.896651 261.008943
Q 600.049506 291.274426 612.64534 320.25817
" clip-path="url(#pc08c227dae)" style="fill: none; stroke: #f2994a; stroke-width: 1.25; stroke-linecap: round"/>
    <path d="M 612.885326 315.792478
L 612.64534 320.25817
L 609.216778 317.386766
z
" clip-path="url(#pc08c227dae)" style="fill: #f2994a; stroke: #f2994a; stroke-width: 1.25; stroke-linecap: round"/>
   </g>
   <g id="patch_37">
    <path d="M 588.063125 331.075384
Q 600.050723 333.433616 610.667061 335.522089
" clip-path="url(#pc08c227dae)" style="fill: none; stroke: #f2994a; stroke-width: 1.25; stroke-linecap: round"/>
    <path d="M 607.12833 332.787608
L 610.667061 335.522089
L 606.356238 336.712385
z
" clip-path="url(#pc08c227dae)" style="fill: #f2994a; stroke: #f2994a; stroke-width: 1.25; stroke-linecap: round"/>
   </g>
   <g id="patch_38">
    <path d="M 656.406 350.986391
Q 656.406 363.399172 656.406 374.414411
" clip-path="url(#pc08c227dae)" style="fill: none; stroke: #1f2937; stroke-width: 1.25; stroke-linecap: round"/>
    <path d="M 658.406 370.414411
L 656.406 374.414411
L 654.406 370.414411
z
" clip-path="url(#pc08c227dae)" style="fill: #1f2937; stroke: #1f2937; stroke-width: 1.25; stroke-linecap: round"/>
   </g>
   <g id="text_28">
    <text style="font-weight: 700; font-size: 7.8px; font-family: 'Arial'; text-anchor: start; fill: #f2994a" x="215.586" y="328.510294" transform="rotate(-0 215.586 328.510294)">Outlier cells</text>
   </g>
   <g id="text_29">
    <text style="font-size: 6.8px; font-family: 'Arial'; text-anchor: start; fill: #1f2937" x="215.586" y="334.713424" transform="rotate(-0 215.586 334.713424)">district x dimension</text>
   </g>
   <g id="patch_39">
    <path d="M 290.129031 330.6888
Q 316.864047 330.6888 341.922013 330.6888
" clip-path="url(#pc08c227dae)" style="fill: none; stroke: #f2994a; stroke-width: 1.5; stroke-linecap: round"/>
    <path d="M 337.122013 328.2888
L 341.922013 330.6888
L 337.122013 333.0888
z
" clip-path="url(#pc08c227dae)" style="fill: #f2994a; stroke: #f2994a; stroke-width: 1.5; stroke-linecap: round"/>
   </g>
  </g>
 </g>
 <defs>
  <clipPath id="pc08c227dae">
   <rect x="10.8" y="10.8" width="725.4" height="543.312"/>
  </clipPath>
 </defs>
</svg>
